<?xml version="1.0" standalone="no"?>
<!DOCTYPE svg PUBLIC "-//W3C//DTD SVG 20010904//EN"
 "http://www.w3.org/TR/2001/REC-SVG-20010904/DTD/svg10.dtd">
<svg version="1.0" xmlns="http://www.w3.org/2000/svg"
 width="300.000000pt" height="300.000000pt" viewBox="0 0 300.000000 300.000000"
 preserveAspectRatio="xMidYMid meet">
<metadata>
Created by potrace 1.10, written by Peter Selinger 2001-2011
</metadata>
<g transform="translate(0.000000,300.000000) scale(0.100000,-0.100000)"
fill="#000000" stroke="none">
<path d="M2765 2893 c-68 -59 -126 -115 -122 -119 2 -2 24 15 50 38 25 24 54
50 64 58 19 16 48 50 42 50 -2 0 -17 -12 -34 -27z"/>
<path d="M2815 2869 c-16 -16 -25 -29 -20 -29 6 0 23 -12 38 -26 22 -20 26
-29 16 -40 -17 -20 -28 -17 -39 11 -6 15 -17 25 -29 25 -11 0 -27 3 -36 7 -15
5 -16 3 -6 -15 19 -36 14 -45 -24 -39 -32 5 -34 4 -25 -13 18 -34 12 -41 -26
-34 -34 6 -36 6 -25 -14 19 -36 14 -45 -24 -38 -19 4 -35 4 -35 1 0 -17 35
-55 50 -55 33 0 40 -23 14 -43 -24 -18 -24 -18 -30 11 -5 25 -12 31 -42 36
-20 3 -38 4 -40 2 -9 -9 32 -56 48 -56 26 0 31 -26 9 -46 -18 -16 -19 -16 -25
12 -5 25 -12 31 -48 40 l-42 10 15 -28 c20 -34 11 -43 -28 -30 -17 6 -31 7
-31 3 0 -15 41 -61 55 -61 21 0 28 -19 15 -35 -18 -22 -27 -18 -38 14 -8 22
-18 30 -44 34 -18 2 -34 3 -36 2 -10 -9 28 -48 57 -61 l35 -15 -22 -22 c-19
-19 -24 -20 -32 -7 -5 8 -10 22 -10 31 0 11 -12 18 -37 22 -20 4 -38 5 -39 4
-9 -8 25 -52 41 -55 36 -7 45 -21 27 -43 -22 -26 -29 -24 -37 11 -5 21 -13 30
-26 30 -11 0 -29 5 -40 10 -22 12 -23 10 -8 -24 7 -14 25 -29 40 -35 19 -7 29
-17 29 -30 0 -27 -12 -27 -36 0 -38 42 -142 91 -197 93 -29 2 -70 8 -92 15
-29 9 -61 10 -109 4 -68 -8 -96 -25 -57 -36 12 -3 23 -17 27 -33 4 -16 15 -40
26 -53 10 -13 18 -29 18 -36 0 -6 12 -18 26 -25 23 -13 24 -15 9 -26 -15 -11
-15 -15 -1 -43 9 -17 25 -35 36 -41 26 -14 26 2 0 25 -31 28 -26 49 10 41 31
-6 31 -6 24 32 -8 43 -14 54 -14 25 0 -28 -9 -33 -35 -21 -30 14 -38 33 -19
49 20 16 98 4 142 -22 24 -14 38 -17 45 -10 7 7 4 12 -9 17 -65 21 -82 34 -77
57 11 45 24 49 47 14 13 -18 18 -35 13 -38 -12 -9 10 -22 23 -14 5 3 -4 24
-20 47 -34 46 -37 58 -15 58 17 0 42 -35 62 -88 l14 -37 -6 39 c-4 21 -13 50
-22 63 -15 23 -15 23 11 13 15 -5 36 -15 47 -21 20 -10 20 -11 3 -24 -17 -12
-16 -13 4 -19 24 -8 26 -14 12 -36 -7 -12 -12 -12 -22 -2 -9 9 -8 12 7 12 15
0 16 3 7 12 -10 10 -15 10 -22 -2 -13 -21 -12 -27 5 -34 30 -11 47 5 43 40
l-4 32 26 -18 c15 -11 33 -27 41 -36 14 -17 39 -80 39 -100 0 -15 -45 -34 -80
-34 -32 0 -36 9 -20 41 7 11 7 19 1 19 -5 0 -17 3 -25 6 -12 5 -15 2 -10 -12
4 -13 -1 -10 -19 9 -16 18 -28 24 -32 17 -4 -7 1 -18 12 -25 33 -23 71 -88 78
-134 8 -46 3 -48 -38 -13 -9 8 -20 13 -23 10 -3 -3 9 -16 25 -28 17 -12 31
-28 31 -36 0 -24 -17 -16 -49 23 -30 36 -41 60 -22 49 14 -9 54 41 47 60 -6
16 -8 16 -21 -2 -8 -10 -15 -14 -15 -7 0 6 4 14 9 18 6 3 -6 22 -26 41 -28 28
-42 35 -64 32 -16 -3 -30 0 -32 6 -2 6 -9 0 -16 -13 -11 -19 -11 -22 1 -15 11
7 11 5 0 -9 -19 -22 -7 -51 34 -85 l35 -29 -64 -55 -63 -56 -45 32 c-24 18
-51 35 -59 39 -11 4 -10 6 4 6 16 1 13 6 -14 26 -19 14 -35 25 -37 25 -12 0
31 -62 50 -71 12 -6 24 -13 25 -15 2 -1 -20 -25 -50 -53 -56 -53 -53 -71 3
-23 28 23 32 24 26 7 -5 -14 2 -10 23 12 18 20 35 30 45 27 8 -3 15 -9 15 -13
0 -8 -362 -375 -500 -508 -58 -55 -120 -117 -139 -138 -18 -20 -54 -46 -80
-58 -25 -11 -59 -31 -76 -45 -29 -24 -29 -25 -5 -17 14 4 31 10 38 12 6 3 12
1 12 -5 0 -5 -26 -21 -57 -35 -60 -27 -132 -81 -123 -91 3 -3 18 1 33 9 15 8
27 10 27 5 0 -13 -38 -37 -80 -51 -38 -13 -116 -67 -124 -86 -3 -8 4 -9 26 -2
18 5 33 7 35 5 5 -5 -65 -46 -78 -46 -6 0 -7 -5 -3 -12 4 -7 3 -8 -4 -4 -18
11 -63 -18 -109 -68 -46 -51 -46 -53 -2 -30 17 8 33 13 36 10 7 -7 -66 -51
-107 -65 -21 -6 -61 -37 -95 -72 -58 -59 -46 -66 18 -13 44 37 55 28 17 -11
-19 -20 -64 -49 -99 -66 -69 -33 -181 -121 -162 -127 7 -2 30 8 52 23 22 16
42 26 45 23 8 -9 -97 -88 -117 -88 -11 0 -18 -6 -16 -12 1 -7 -17 -23 -41 -35
-24 -12 -50 -27 -59 -35 -12 -9 -15 -10 -9 0 4 6 3 12 -3 12 -5 0 -12 -4 -15
-9 -7 -11 -95 -35 -102 -28 -3 3 22 15 55 28 65 23 92 44 44 34 -27 -6 -27 -6
-9 9 11 9 24 16 28 16 10 0 146 95 193 134 l30 25 -34 -9 c-54 -15 -49 -3 10
25 51 24 100 60 179 133 l35 32 -39 -16 c-65 -26 -50 -9 36 42 79 46 163 112
155 121 -2 2 -16 -1 -31 -6 -47 -19 -27 3 36 38 33 18 82 49 107 69 l46 35
-40 -7 c-37 -6 -34 -3 40 39 44 25 91 58 105 72 l25 25 -25 -7 c-14 -4 -32
-10 -40 -13 -32 -11 7 17 65 47 33 17 71 40 85 51 l25 21 -32 -6 c-50 -10 -40
2 30 33 34 16 73 42 87 57 22 25 22 27 5 20 -47 -18 -58 -15 -25 6 19 13 41
29 49 37 7 7 29 21 50 31 34 18 103 81 87 81 -4 0 -21 -7 -39 -16 l-32 -15 30
25 c69 58 93 76 103 76 5 0 21 9 36 21 14 11 30 18 34 15 5 -3 9 1 9 8 0 10
-8 12 -30 5 -16 -4 -33 -7 -37 -6 -4 1 -52 -39 -106 -89 -146 -134 -146 -124
1 27 71 74 -7 -2 -175 -167 -467 -461 -1043 -996 -1182 -1097 -31 -23 -57 -45
-57 -48 -1 -11 59 -19 141 -19 79 0 81 1 128 40 26 22 50 36 54 32 4 -4 6 -2
4 4 -2 7 13 25 33 40 45 37 222 199 359 330 58 55 119 113 137 129 18 15 30
32 27 37 -3 5 -1 7 4 6 6 -2 75 57 153 131 167 155 669 652 669 662 0 3 8 10
18 15 10 5 49 43 87 84 39 42 117 127 175 188 l105 113 20 -25 c12 -15 25 -26
31 -26 5 0 27 -14 49 -32 31 -24 35 -26 17 -7 -12 14 -20 28 -17 31 3 3 -6 9
-20 12 -14 4 -23 11 -20 16 3 6 2 10 -4 10 -19 0 -34 40 -20 56 10 13 17 7 41
-35 31 -54 58 -65 78 -33 8 11 10 12 7 2 -2 -8 -14 -21 -28 -27 l-24 -13 27 0
c21 0 29 6 34 25 3 14 13 25 21 25 12 0 12 2 -1 16 -9 8 -16 24 -16 34 0 10
-3 26 -6 34 -5 12 5 9 34 -10 37 -24 39 -28 25 -43 -15 -14 -12 -16 28 -26
l43 -11 -34 -11 -35 -11 39 -1 38 -1 -4 -40 c-2 -26 1 -41 9 -44 9 -4 12 9 12
47 -1 57 -12 77 -40 77 -25 0 -24 17 1 25 11 3 20 14 20 23 0 13 -2 13 -13 -3
-8 -10 -19 -15 -26 -11 -9 6 -7 12 6 23 17 14 17 14 0 5 -13 -6 -30 -3 -55 9
-53 28 -57 35 -21 43 18 3 40 13 50 22 11 10 19 12 24 5 3 -6 3 -11 -1 -11 -4
0 3 -11 16 -25 14 -14 30 -38 36 -53 l12 -27 1 26 c1 14 -12 43 -28 65 -16 21
-32 53 -35 71 -4 17 -13 36 -20 42 -9 8 33 56 169 193 100 101 213 213 252
250 39 37 74 79 77 92 3 14 15 28 26 31 30 10 24 39 -15 74 -20 17 -37 31 -38
30 -1 -1 -15 -14 -32 -30z m-7 -122 c8 -10 6 -16 -9 -25 -24 -15 -39 -8 -39
19 0 22 32 26 48 6z m-63 -39 c30 -14 31 -19 5 -36 -26 -16 -40 -8 -40 24 0
28 1 28 35 12z m-35 -62 c0 -18 -27 -39 -40 -31 -5 3 -10 15 -10 26 0 14 7 19
25 19 15 0 25 -6 25 -14z m-158 -147 l20 -11 -21 -14 c-25 -18 -41 -11 -41 17
0 22 12 24 42 8z m-507 -121 c16 -7 24 -17 20 -26 -3 -7 -5 -27 -5 -44 l0 -30
-45 46 c-24 25 -49 46 -55 46 -5 0 -10 5 -10 10 0 14 63 13 95 -2z m-62 -47
c26 -19 47 -38 47 -41 0 -3 -10 -5 -22 -5 -13 -1 -33 -4 -44 -8 -22 -8 -34 11
-49 76 -7 33 -4 32 68 -22z m174 -193 c21 -12 40 -23 42 -24 1 -2 -5 -13 -14
-26 l-17 -23 7 24 c5 17 4 21 -5 16 -11 -7 -60 31 -60 47 0 12 5 10 47 -14z"/>
<path d="M2845 2648 c-9 -27 -12 -109 -3 -114 4 -3 8 1 8 8 0 8 7 23 15 34 15
19 16 18 40 -9 36 -40 32 -67 -15 -107 -55 -47 -51 -61 4 -16 24 20 51 36 60
36 24 0 20 51 -9 102 -21 38 -37 51 -88 76 -4 2 -9 -3 -12 -10z"/>
<path d="M2651 2223 c-133 -134 -180 -187 -170 -193 9 -6 20 1 35 21 12 16 75
84 140 152 102 104 194 209 182 206 -1 0 -86 -84 -187 -186z"/>
<path d="M2280 2270 c0 -11 7 -20 15 -20 22 0 30 -27 14 -47 -13 -15 -12 -15
7 -5 26 14 25 41 -4 70 -27 27 -32 27 -32 2z"/>
<path d="M2250 2231 l-25 -8 27 -13 c22 -10 30 -10 43 0 29 24 5 35 -45 21z"/>
<path d="M1986 2044 c-9 -8 -14 -20 -11 -25 8 -13 16 -11 13 2 -2 6 8 13 22
15 19 4 22 2 12 -8 -16 -16 -15 -38 1 -38 20 0 51 37 38 45 -6 3 -11 3 -11 0
0 -4 -7 1 -16 9 -19 20 -29 20 -48 0z"/>
<path d="M2450 2000 c0 -11 48 -25 56 -17 4 3 3 10 -1 16 -8 14 -55 14 -55 1z"/>
<path d="M2465 1946 c-5 -10 -3 -21 2 -25 14 -8 25 -189 12 -196 -5 -4 -9 2
-9 12 -1 16 -2 16 -10 2 -6 -10 -6 -29 1 -50 6 -19 16 -63 23 -98 l12 -65 22
24 c12 13 19 27 16 31 -3 5 3 6 13 3 13 -4 11 0 -7 14 -22 18 -23 22 -10 39
13 16 13 17 -1 6 -13 -11 -18 -9 -26 10 -21 41 -22 56 -7 68 8 7 14 8 13 3 -2
-5 1 -20 5 -34 9 -25 9 -25 17 -3 5 13 2 50 -6 90 -8 37 -15 77 -15 88 0 11
-9 38 -19 60 -16 34 -20 37 -26 21z"/>
<path d="M1784 1819 l-29 -31 42 21 c48 24 63 41 35 41 -10 0 -31 -14 -48 -31z"/>
<path d="M1735 1699 c-28 -29 -43 -48 -34 -43 16 9 95 94 87 94 -2 0 -26 -23
-53 -51z"/>
<path d="M1687 1705 c-37 -14 -140 -95 -132 -104 3 -2 22 9 43 26 20 17 46 33
57 37 18 5 86 56 75 55 -3 0 -22 -7 -43 -14z"/>
<path d="M2035 1679 c-28 -23 -51 -45 -53 -50 -2 -5 -10 -9 -18 -9 -8 0 -14
-3 -14 -8 0 -4 -34 -41 -76 -82 -92 -91 -155 -155 -170 -172 -6 -7 -40 -41
-75 -75 -35 -34 -68 -67 -74 -72 -44 -44 -260 -254 -293 -284 -23 -21 -42 -43
-42 -48 0 -6 -4 -7 -10 -4 -5 3 -10 1 -10 -6 0 -14 -56 -69 -70 -69 -6 0 -8
-5 -5 -10 3 -6 2 -10 -4 -10 -6 0 -46 -36 -88 -80 -43 -44 -81 -80 -85 -80 -4
0 -29 -22 -56 -50 -27 -27 -52 -50 -57 -50 -4 0 -25 -18 -46 -40 -22 -22 -42
-40 -46 -40 -4 0 -40 -34 -80 -76 -40 -42 -73 -73 -73 -70 0 3 -10 -5 -23 -17
-92 -89 -288 -233 -329 -242 -30 -7 -44 -20 -30 -29 12 -7 129 49 168 82 18
15 59 47 93 72 33 25 60 50 60 57 1 6 6 15 13 19 7 5 9 2 4 -7 -4 -8 4 -2 18
14 14 15 28 27 31 27 3 0 18 12 33 27 16 16 65 63 110 105 44 43 78 78 74 78
-4 1 3 6 15 13 53 30 220 188 730 692 211 209 412 407 446 440 101 99 116 123
32 54z"/>
<path d="M1469 1441 c-34 -36 -40 -47 -23 -39 13 6 24 15 24 19 0 4 12 21 26
38 39 47 25 37 -27 -18z"/>
<path d="M1325 1300 l-40 -41 31 11 c19 7 34 21 41 40 6 17 10 30 9 30 -1 0
-20 -18 -41 -40z"/>
<path d="M2615 1253 c3 -15 16 -77 30 -138 19 -91 24 -102 24 -64 1 25 -5 68
-13 95 -8 27 -17 66 -20 86 -4 21 -11 40 -17 43 -6 4 -7 -4 -4 -22z"/>
<path d="M2532 999 c6 -19 86 -59 119 -59 29 0 47 26 29 44 -6 6 -27 11 -48
12 -20 0 -52 4 -71 9 -26 6 -33 5 -29 -6z"/>
<path d="M43 32 c-3 -9 -8 -20 -10 -24 -2 -4 26 -6 62 -6 40 1 61 4 53 9 -7 5
-20 9 -28 9 -8 0 -28 7 -43 15 -25 13 -28 13 -34 -3z"/>
</g>
</svg>
